<?xml version="1.0" encoding="UTF-8" standalone="no"?><!DOCTYPE svg PUBLIC "-//W3C//DTD SVG 1.1//EN" "http://www.w3.org/Graphics/SVG/1.1/DTD/svg11.dtd"><svg width="100%" height="100%" viewBox="0 0 113 163" version="1.1" xmlns="http://www.w3.org/2000/svg" xmlns:xlink="http://www.w3.org/1999/xlink" xml:space="preserve" xmlns:serif="http://www.serif.com/" style="fill-rule:evenodd;clip-rule:evenodd;stroke-linejoin:round;stroke-miterlimit:2;"><g><g><path d="M102.389,162.72c2.698,0 5.285,-1.072 7.192,-2.979c1.907,-1.907 2.979,-4.494 2.979,-7.192l-0,-115.699l-36.72,-36.85l-65.669,-0c-2.698,-0 -5.285,1.072 -7.192,2.979c-1.907,1.907 -2.979,4.494 -2.979,7.192l-0,142.378c0,2.698 1.072,5.285 2.979,7.192c1.907,1.907 4.494,2.979 7.192,2.979l92.218,0Z" style="fill:#fff;"/><path d="M85.946,36.785c-2.698,0 -5.285,-1.071 -7.192,-2.979c-1.908,-1.907 -2.979,-4.494 -2.979,-7.192l-0,-26.549l36.85,36.72l-26.679,0Z" style="fill:#b7b7b7;"/></g><path d="M50.452,109.711l-5.389,-0l15.872,-37.022l5.412,0l-15.895,37.022Zm-14.986,-4.367l-15.327,-12.916l15.327,-12.894l3.548,3.593l-11.28,9.255l11.28,9.369l-3.548,3.593Zm41.524,-25.81l15.327,12.894l-15.327,12.916l-3.525,-3.593l11.257,-9.278l-11.257,-9.346l3.525,-3.593Z" style="fill:#b7b7b7;fill-rule:nonzero;"/></g></svg>